HIERARCHY
ROOT Hips
{
	OFFSET 0.000000 0.000000 0.000000
	CHANNELS 6 Xposition Yposition Zposition Zrotation Yrotation Xrotation 
	JOINT LHipJoint
	{
		OFFSET 0.000000 0.000000 0.000000
		CHANNELS 3 Zrotation Yrotation Xrotation
		JOINT LeftUpLeg
		{
			OFFSET 1.363060 -1.794630 0.839290
			CHANNELS 3 Zrotation Yrotation Xrotation
			JOINT LeftLeg
			{
				OFFSET 2.448110 -6.726130 0.000000
				CHANNELS 3 Zrotation Yrotation Xrotation
				JOINT LeftFoot
				{
					OFFSET 2.562200 -7.039590 0.000000
					CHANNELS 3 Zrotation Yrotation Xrotation
					JOINT LeftToeBase
					{
						OFFSET 0.157640 -0.433110 2.322550
						CHANNELS 3 Zrotation Yrotation Xrotation
						End Site
						{
							OFFSET 0.000000 0.000000 0.000000
						}
					}
				}
			}
		}
	}
	JOINT RHipJoint
	{
		OFFSET 0.000000 0.000000 0.000000
		CHANNELS 3 Zrotation Yrotation Xrotation
		JOINT RightUpLeg
		{
			OFFSET -1.305520 -1.794630 0.839290
			CHANNELS 3 Zrotation Yrotation Xrotation
			JOINT RightLeg
			{
				OFFSET -2.542530 -6.985550 0.000000
				CHANNELS 3 Zrotation Yrotation Xrotation
				JOINT RightFoot
				{
					OFFSET -2.568260 -7.056230 0.000000
					CHANNELS 3 Zrotation Yrotation Xrotation
					JOINT RightToeBase
					{
						OFFSET -0.164730 -0.452590 2.363150
						CHANNELS 3 Zrotation Yrotation Xrotation
						End Site
						{
							OFFSET 0.000000 0.000000 0.000000
						}
					}
				}
			}
		}
	}
	JOINT LowerBack
	{
		OFFSET 0.000000 0.000000 0.000000
		CHANNELS 3 Zrotation Yrotation Xrotation
		JOINT Spine
		{
			OFFSET 0.028270 2.035590 -0.193380
			CHANNELS 3 Zrotation Yrotation Xrotation
			JOINT Spine1
			{
				OFFSET 0.056720 2.048850 -0.042750
				CHANNELS 3 Zrotation Yrotation Xrotation
				JOINT Neck
				{
					OFFSET 0.000000 0.000000 0.000000
					CHANNELS 3 Zrotation Yrotation Xrotation
					JOINT Neck1
					{
						OFFSET -0.054170 1.746240 0.172020
						CHANNELS 3 Zrotation Yrotation Xrotation
						JOINT Head
						{
							OFFSET 0.104070 1.761360 -0.123970
							CHANNELS 3 Zrotation Yrotation Xrotation
							End Site
							{
								OFFSET 0.000000 0.000000 0.000000
							}
						}
					}
				}
				JOINT LeftShoulder
				{
					OFFSET 0.000000 0.000000 0.000000
					CHANNELS 3 Zrotation Yrotation Xrotation
					JOINT LeftArm
					{
						OFFSET 3.362410 1.200890 -0.311210
						CHANNELS 3 Zrotation Yrotation Xrotation
						JOINT LeftForeArm
						{
							OFFSET 4.983000 -0.000000 -0.000000
							CHANNELS 3 Zrotation Yrotation Xrotation
							JOINT LeftHand
							{
								OFFSET 3.483560 -0.000000 -0.000000
								CHANNELS 3 Zrotation Yrotation Xrotation
								JOINT LeftFingerBase
								{
									OFFSET 0.000000 0.000000 0.000000
									CHANNELS 3 Zrotation Yrotation Xrotation
									JOINT LeftHandIndex1
									{
										OFFSET 0.715260 -0.000000 -0.000000
										CHANNELS 3 Zrotation Yrotation Xrotation
										End Site
										{
											OFFSET 0.000000 0.000000 0.000000
										}
									}
								}
								JOINT LThumb
								{
									OFFSET 0.000000 0.000000 0.000000
									CHANNELS 3 Zrotation Yrotation Xrotation
									End Site
									{
										OFFSET 0.000000 0.000000 0.000000
									}
								}
							}
						}
					}
				}
				JOINT RightShoulder
				{
					OFFSET 0.000000 0.000000 0.000000
					CHANNELS 3 Zrotation Yrotation Xrotation
					JOINT RightArm
					{
						OFFSET -3.136600 1.374050 -0.404650
						CHANNELS 3 Zrotation Yrotation Xrotation
						JOINT RightForeArm
						{
							OFFSET -5.241900 -0.000000 -0.000000
							CHANNELS 3 Zrotation Yrotation Xrotation
							JOINT RightHand
							{
								OFFSET -3.444170 -0.000000 -0.000000
								CHANNELS 3 Zrotation Yrotation Xrotation
								JOINT RightFingerBase
								{
									OFFSET 0.000000 0.000000 0.000000
									CHANNELS 3 Zrotation Yrotation Xrotation
									JOINT RightHandIndex1
									{
										OFFSET -0.622530 -0.000000 -0.000000
										CHANNELS 3 Zrotation Yrotation Xrotation
										End Site
										{
											OFFSET 0.000000 0.000000 0.000000
										}
									}
								}
								JOINT RThumb
								{
									OFFSET 0.000000 0.000000 0.000000
									CHANNELS 3 Zrotation Yrotation Xrotation
									End Site
									{
										OFFSET 0.000000 0.000000 0.000000
									}
								}
							}
						}
					}
				}
			}
		}
	}
}
MOTION
Frames: 5
Frame Time: 0.016667
-0.014805 16.406081 -0.014805 -11.921634 6.952823 0.656500 -24.544689 23.222203 -15.202524 46.405278 -40.605098 -55.782516 -45.466216 -33.375417 29.704293 -42.850028 -63.263462 56.631950 0.000000 0.000000 0.000000 2.528474 -48.548442 2.693097 47.889397 8.457380 -11.267768 -24.080846 -7.786119 33.308207 6.633387 -4.060987 -19.701821 0.000000 0.000000 0.000000 9.551268 16.436640 24.636306 5.992231 18.068502 1.767672 -18.811986 11.298430 -35.842007 2.688344 -1.996958 -23.714995 7.125589 -2.021253 28.899706 0.000000 0.000000 0.000000 -1.387003 -26.905148 25.708217 -76.677893 -17.589692 -3.785807 -141.634209 -71.608295 175.685117 9.114237 -3.687437 -2.325022 9.849116 -3.268635 0.000000 0.000000 0.000000 0.000000 0.000000 0.000000 0.000000 -19.569135 -12.685632 -47.520322 62.360563 33.247243 -34.291791 104.170245 19.861174 -8.283652 22.597920 18.763589 -4.167694 23.212687 18.379828 -0.000000 0.000000 0.000000 0.000000 0.000000 0.000000 0.000000 
-0.048733 16.405345 0.100277 -10.058361 -1.764358 2.394844 -21.511027 22.246926 -11.731961 48.597416 -32.191056 -55.595816 -44.670741 -38.727428 30.848079 -36.518226 -47.094029 50.598951 0.000000 0.000000 0.000000 3.978529 -42.426195 -1.541743 47.229723 8.618518 -9.949119 -25.235592 -6.636179 34.205878 6.585070 -3.627817 -19.480225 0.000000 0.000000 0.000000 6.210867 6.139926 23.438123 5.554375 7.303574 -1.172258 -11.399269 6.195441 -27.815851 9.891804 -0.960774 -20.808204 1.475627 -0.747620 25.691938 0.000000 0.000000 0.000000 0.648515 3.518418 19.249307 -70.988606 -3.047810 5.707493 -155.165440 -82.283280 175.624719 17.824517 -15.473176 -2.494602 19.203529 -14.751702 0.000000 0.000000 0.000000 0.000000 0.000000 0.000000 0.000000 -22.618931 -21.023223 -15.390037 86.515034 51.069830 -37.424626 9.995523 -88.803830 -1.304243 -7.991348 3.273865 -0.645929 -8.227277 3.091673 0.000037 0.000000 0.000000 0.000000 0.000000 0.000000 0.000000 
-0.080256 16.406429 0.214614 -4.204837 -10.179738 5.142485 -8.476435 11.817820 -1.176358 60.670600 -36.061343 -58.815025 -46.498258 -65.186909 29.205092 -30.817116 -54.034873 54.844884 0.000000 0.000000 0.000000 2.523486 -37.171106 -6.654027 46.149372 9.325060 -8.902342 -26.473980 -5.215094 35.255188 6.535034 -3.007821 -19.345740 0.000000 0.000000 0.000000 0.617092 7.128979 18.933867 2.510263 7.276255 -1.396245 -9.784069 8.446029 -18.256870 10.171328 -0.669384 -19.910686 -0.026478 -0.631237 20.834241 0.000000 0.000000 0.000000 1.461792 5.829528 15.497791 -69.073324 -0.761142 13.012250 13.915600 -88.694327 -0.083580 9.520656 -16.439191 -0.068619 9.748711 -16.331889 0.000000 0.000000 0.000000 0.000000 0.000000 0.000000 0.000000 -19.830608 -11.129994 -6.934095 93.679360 19.133137 19.088060 35.957488 -61.271364 1.756617 -14.977522 25.443758 0.790756 -15.323119 25.182595 0.000000 0.000000 0.000000 0.000000 0.000000 0.000000 0.000000 
-0.089643 16.423086 0.347781 -8.584807 -2.965681 3.461463 -20.190843 20.372755 -6.046726 53.088231 -30.228228 -58.717903 -38.211853 -43.536712 26.394669 -33.051660 -46.481251 43.570556 0.000000 0.000000 0.000000 5.784175 -39.686790 -2.834766 45.841971 12.519652 -11.610188 -27.870937 -5.204606 39.152176 7.668814 -5.704709 -17.385419 0.000000 0.000000 0.000000 4.943080 4.714297 20.381152 4.947556 6.129950 -1.587523 -10.500899 7.275697 -17.687197 10.142959 -0.573531 -19.701699 0.559086 -0.655076 20.632943 0.000000 0.000000 0.000000 1.116736 4.629894 15.610714 -69.386063 -1.787646 11.921346 -164.217605 -89.890865 179.835558 9.779297 -15.842550 -0.108890 10.006722 -15.731785 0.000000 0.000000 0.000000 0.000000 0.000000 0.000000 0.000000 -20.408233 -11.272312 -6.576771 93.375616 18.865009 18.780115 37.248424 -61.332927 1.778297 -15.703901 25.302239 0.803228 -16.031987 25.031021 0.000000 0.000000 0.000000 0.000000 0.000000 0.000000 0.000000 
-0.097174 16.440795 0.479622 -9.859938 1.621118 3.180164 -24.611743 29.931476 -8.287792 52.941687 -36.726294 -60.726587 -28.216281 -37.111360 11.671272 -37.219582 -55.119332 48.099709 0.000000 0.000000 0.000000 7.818368 -40.647307 -0.864691 44.668143 16.130765 -14.641198 -28.783903 -5.116178 43.160435 8.906862 -8.485836 -15.450495 0.000000 0.000000 0.000000 6.859185 3.620100 20.631465 5.926329 5.272671 -1.920948 -11.223278 6.392893 -17.171400 10.039886 -0.519988 -19.417067 1.135685 -0.665523 20.413712 0.000000 0.000000 0.000000 0.948314 3.628191 15.627612 -69.696528 -3.591045 9.306615 -161.263154 -87.901690 178.455250 14.656666 -18.508511 -0.873020 15.329545 -18.162940 0.000000 0.000000 0.000000 0.000000 0.000000 0.000000 0.000000 -21.021888 -11.105009 -6.156704 93.563156 18.659776 18.435084 38.269513 -60.943332 1.782259 -16.112833 24.693458 0.814839 -16.392335 24.435992 0.000000 0.000000 0.000000 0.000000 0.000000 0.000000 0.000000 
